<svg width="24" height="24" viewBox="0 0 24 24" fill="none" xmlns="http://www.w3.org/2000/svg">
  <!-- Cake Base -->
  <path d="M5 14H19V18C19 19.1046 18.1046 20 17 20H7C5.89543 20 5 19.1046 5 18V14Z" fill="#FFB6C1"/>
  <path d="M5 14H19L18 11H6L5 14Z" fill="#FF69B4"/>
  
  <!-- Candles -->
  <rect x="10" y="8" width="4" height="6" fill="#FFD700"/>
  <path d="M12 6C12 5.44772 12.4477 5 13 5H13.5C14.0523 5 14.5 5.44772 14.5 6V7.5H12V6Z" fill="#FF4500"/>
  
  <!-- Balloons -->
  <path d="M16 4C16 2.34315 14.6569 1 13 1C11.3431 1 10 2.34315 10 4V6C10 7.65685 11.3431 9 13 9C14.6569 9 16 7.65685 16 6V4Z" fill="#FF69B4"/>
  <path d="M8 3C8 1.34315 6.65685 0 5 0C3.34315 0 2 1.34315 2 3V5C2 6.65685 3.34315 8 5 8C6.65685 8 8 6.65685 8 5V3Z" fill="#87CEEB"/>
  <path d="M21 4C21 2.34315 19.6569 1 18 1C16.3431 1 15 2.34315 15 4V6C15 7.65685 16.3431 9 18 9C19.6569 9 21 7.65685 21 6V4Z" fill="#98FB98"/>
  
  <!-- Strings -->
  <path d="M12 14L12 20" stroke="#808080" stroke-width="0.5"/>
  <path d="M6 14L4 20" stroke="#808080" stroke-width="0.5"/>
  <path d="M18 14L20 20" stroke="#808080" stroke-width="0.5"/>
  
  <!-- Confetti -->
  <circle cx="3" cy="3" r="0.8" fill="#FFD700"/>
  <circle cx="20" cy="5" r="0.8" fill="#87CEEB"/>
  <circle cx="18" cy="2" r="0.8" fill="#98FB98"/>
</svg>